<svg xmlns="http://www.w3.org/2000/svg" xmlns:xlink="http://www.w3.org/1999/xlink" width="238pt" height="144pt" viewBox="0.00 0.00 237.69 144.00">
<g id="graph0" class="graph" transform="scale(1 1) rotate(0) translate(4 140)">
<title>RewriteGraph</title>
<polygon fill="white" stroke="none" points="-4,4 -4,-140 233.69,-140 233.69,4 -4,4"/>
<!-- node1 -->
<g id="node1" class="node">
<title>node1</title>
<polygon fill="none" stroke="black" points="167.69,-136 62,-136 62,-94.4 167.69,-94.4 167.69,-136"/>
<text text-anchor="middle" x="114.84" y="-119.4" font-family="Times,serif" font-size="14.00">ccc</text>
<text text-anchor="middle" x="114.84" y="-102.6" font-family="Times,serif" font-size="14.00">M1=33, M2=72</text>
</g>
<!-- node2 -->
<g id="node2" class="node">
<title>node2</title>
<polygon fill="lightgreen" stroke="black" points="105.69,-41.6 0,-41.6 0,0 105.69,0 105.69,-41.6"/>
<text text-anchor="middle" x="52.84" y="-25" font-family="Times,serif" font-size="14.00">acbc</text>
<text text-anchor="middle" x="52.84" y="-8.2" font-family="Times,serif" font-size="14.00">M1=33, M2=71</text>
</g>
<!-- node1&#45;&gt;node2 -->
<g id="edge1" class="edge">
<title>node1-&gt;node2</title>
<path fill="none" stroke="black" d="M101.39,-94.15C92.94,-81.56 81.9,-65.1 72.48,-51.06"/>
<polygon fill="black" stroke="black" points="75.59,-49.42 67.11,-43.07 69.78,-53.32 75.59,-49.42"/>
<text text-anchor="middle" x="114.07" y="-63.8" font-family="Times,serif" font-size="14.00">cc → acb</text>
</g>
<!-- node3 -->
<g id="node3" class="node">
<title>node3</title>
<polygon fill="lightgreen" stroke="black" points="229.69,-41.6 124,-41.6 124,0 229.69,0 229.69,-41.6"/>
<text text-anchor="middle" x="176.84" y="-25" font-family="Times,serif" font-size="14.00">cacb</text>
<text text-anchor="middle" x="176.84" y="-8.2" font-family="Times,serif" font-size="14.00">M1=33, M2=71</text>
</g>
<!-- node1&#45;&gt;node3 -->
<g id="edge2" class="edge">
<title>node1-&gt;node3</title>
<path fill="none" stroke="black" d="M130.26,-94.01C134.44,-88.38 138.89,-82.21 142.84,-76.4 148.19,-68.54 153.73,-59.88 158.76,-51.81"/>
<polygon fill="black" stroke="black" points="161.73,-53.66 164,-43.3 155.77,-49.98 161.73,-53.66"/>
<text text-anchor="middle" x="178.19" y="-63.8" font-family="Times,serif" font-size="14.00">cc → acb</text>
</g>
</g>
</svg>